<svg version="1.1" xmlns="http://www.w3.org/2000/svg" xmlns:xlink="http://www.w3.org/1999/xlink" width="24" height="24" viewBox="0,0,256,256"><g fill="#ebebeb" fill-rule="nonzero" stroke="none" stroke-width="1" stroke-linecap="butt" stroke-linejoin="miter" stroke-miterlimit="10" stroke-dasharray="" stroke-dashoffset="0" font-family="none" font-weight="none" font-size="none" text-anchor="none" style="mix-blend-mode: normal"><g transform="scale(10.66667,10.66667)"><path d="M2.28099,19.6575c0.08867,0.8586 0.65162,1.5382 1.49589,1.718c1.33262,0.2837 3.84472,0.6245 8.22312,0.6245c4.3784,0 6.8905,-0.3408 8.2232,-0.6245c0.8442,-0.1798 1.4071,-0.8594 1.4958,-1.718c0.1315,-1.2731 0.281,-3.6106 0.281,-7.6575c0,-4.04695 -0.1495,-6.3844 -0.281,-7.65749c-0.0887,-0.85862 -0.6516,-1.53827 -1.4959,-1.718c-1.3326,-0.2837 -3.8447,-0.62451 -8.2231,-0.62451c-4.3784,0 -6.8905,0.34081 -8.22312,0.62451c-0.84427,0.17973 -1.40722,0.85938 -1.49589,1.718c-0.13147,1.27309 -0.28099,3.61054 -0.28099,7.65749c0,4.0469 0.14952,6.3844 0.28099,7.6575z" opacity="0.32"></path><path d="M13.9382,13.8559c1.3248,-0.6976 2.2281,-2.088 2.2281,-3.6893c0,-2.3011 -1.8655,-4.1666 -4.1667,-4.1666c-2.30119,0 -4.16669,1.8655 -4.16669,4.1666c0,1.6014 0.90335,2.9918 2.22829,3.6894c-1.77429,0.676 -3.12904,2.2532 -3.54869,4.1969c-0.05805,0.269 0.08995,0.5452 0.3609,0.5942c0.9724,0.176 2.58275,0.3529 5.12719,0.3529c2.5444,0 4.1548,-0.1769 5.1272,-0.3529c0.2699,-0.0488 0.4176,-0.324 0.3598,-0.592c-0.4191,-1.9448 -1.7743,-3.523 -3.5494,-4.1992z"></path></g></g></svg>