<svg version="1.1" xmlns="http://www.w3.org/2000/svg" xmlns:xlink="http://www.w3.org/1999/xlink" width="1280" height="1280" viewBox="0,0,256,256"><g fill="none" fill-rule="nonzero" stroke="none" stroke-width="1" stroke-linecap="butt" stroke-linejoin="miter" stroke-miterlimit="10" stroke-dasharray="" stroke-dashoffset="0" font-family="none" font-weight="none" font-size="none" text-anchor="none" style="mix-blend-mode: normal"><g transform="translate(-2.9375,-3.0625) scale(0.125,0.125)"><path transform="translate(936,128)" d="M0,0h49l37,2l34,3l43,6l50,10l42,11l41,13l40,15l32,14l29,14l27,14l24,14l23,14l28,19l14,10l21,16l16,13l11,9l14,12l16,15l12,11l21,21l7,8l9,9l7,8l11,13l12,14l8,10l6,8l26,36l13,20l12,19l14,24l15,28l12,24l14,31l14,36l11,31l12,41l9,37l7,35l7,50l2,19v10l-1,1h-125l-2,-2l-6,-44l-6,-32l-7,-30l-9,-31l-11,-33l-13,-33l-10,-24l-16,8l-78,45l-12,7l-3,-1l-11,-20l-14,-24l-15,-26l-10,-18l-9,-15l-3,-4l2,-4l10,-6l17,-10l15,-9l26,-15l25,-14l9,-5l-1,-5l-20,-26l-13,-16l-7,-8l-9,-10l-7,-8l-8,-8l-7,-8l-8,-8l-8,-7l-8,-8l-8,-7l-10,-9l-11,-9l-16,-13l-14,-10l-9,-7h-3l-13,23l-14,24l-30,52l-5,5l-17,-10l-21,-12l-26,-15l-43,-25l-2,-4l14,-24l16,-28l14,-24l15,-27l-1,-2l-30,-13l-31,-12l-36,-12l-29,-8l-30,-7l-40,-7l-31,-4v124l-5,1h-122l-1,-1v-124l-51,7l-36,7l-36,9l-39,12l-32,12l-35,15l2,6l28,49l15,26l10,17l5,9v2l-11,6l-24,14l-28,16l-26,15l-17,10l-5,1l-6,-9l-16,-28l-15,-26l-24,-42l-7,4l-19,14l-13,11l-10,8l-14,12l-15,14l-6,6h-2l-1,3l-8,7l-12,13l-7,7l-9,11l-11,12l-8,10l-11,14l-13,18l-2,3l25,15l23,13l24,14l26,15l8,6l-8,14l-14,25l-14,24l-24,42l-3,5l-5,-2l-27,-15l-24,-14l-26,-15l-24,-14h-3l-14,33l-13,35l-9,28l-9,34l-8,38l-5,33l-4,28h124l1,1v126l-5,1h-120l2,13l6,42l8,40l11,41l12,36l9,24l12,28l2,5l5,-2l15,-8l17,-10l26,-15l24,-14l19,-11l4,1l8,15l14,24l15,26l12,21l13,22l-4,4l-26,15l-24,14l-26,15l-24,14l-2,1l2,4l14,19l13,16l9,11l12,14l16,17l31,31l8,7l14,12l17,14l13,10l13,9l3,3h3l10,-17l16,-29l10,-17l24,-40l3,-2l25,14l17,10l26,15l24,14l17,10l-2,5l-12,22l-14,24l-15,26l-12,21l-6,11l9,3l21,9l26,10l36,12l28,8l30,7l39,7l37,5l4,1v-124l1,-1h126l1,1v251l-3,1l-30,2h-74l-39,-3l-34,-4l-37,-6l-42,-9l-41,-11l-49,-16l-33,-13l-25,-11l-22,-10l-19,-10l-26,-14l-27,-16l-25,-16l-20,-14l-19,-14l-16,-12l-28,-24l-10,-9l-8,-7l-7,-7l-8,-7l-28,-28l-7,-8l-7,-7l-9,-11l-9,-10l-9,-11l-11,-14l-14,-18l-11,-16l-9,-13l-11,-17l-13,-21l-16,-28l-15,-29l-11,-23l-13,-30l-14,-37l-12,-36l-9,-32l-9,-39l-7,-38l-6,-45l-3,-39l-1,-20v-58l2,-35l3,-31l6,-42l7,-37l9,-37l11,-39l15,-43l13,-32l15,-33l16,-32l13,-23l13,-22l13,-20l8,-12l12,-17l13,-18l20,-25l11,-13l9,-10l7,-8l9,-10l11,-11l7,-8l13,-12l14,-14l11,-9l13,-12l11,-9l16,-13l17,-13l17,-12l16,-11l17,-11l18,-11l26,-15l23,-12l15,-8l33,-15l40,-16l44,-15l39,-11l45,-10l34,-6l40,-5l38,-3z" fill="#ffffff"></path><path transform="translate(1593,1024)" d="M0,0h21l17,2l22,5l15,5l20,9l17,10l16,12l10,9l15,15l10,13l11,17l12,25l6,18l4,17l2,15l1,17v67h199l12,2l12,5l11,8l8,8l7,11l5,10l2,5v669l-6,16l-7,10l-11,11l-13,8l-13,5h-796l-16,-7l-10,-7l-5,-4l-10,-13l-6,-13l-2,-8l-1,-12v-643l2,-14l5,-12l6,-10l9,-10l10,-7l14,-6l13,-2l196,-1l1,-76l3,-22l6,-21l7,-17l8,-14l10,-14l9,-11l17,-17l17,-13l20,-12l16,-8l18,-7l17,-6l13,-9l11,-5l6,-2zM-3,128l-15,4l-12,7l-12,11l-7,10l-5,11l-3,14v71h128v-65l-2,-16l-5,-13l-7,-11l-9,-9l-11,-7l-8,-4l-13,-3zM-312,384l-1,3v509l1,1h638l1,-1v-512h-128l-1,63l-1,14l-4,13l-6,11l-9,10l-7,6l-14,7l-12,3l-11,1l-16,-2l-13,-5l-11,-8l-5,-5l-7,-8l-7,-14l-3,-15l-1,-71h-128l-1,64l-2,18l-6,15l-6,8l-10,10l-14,8l-14,4l-13,1l-15,-2l-13,-5l-10,-7l-5,-4l-8,-10l-7,-14l-3,-15l-1,-71z" fill="#ffffff"></path><path transform="translate(958,577)" d="M0,0l5,1l316,316l-1,2h-254v383l-5,1h-122l-1,-1l-1,-16v-69l1,-298h-244l-11,-1v-2l8,-7z" fill="#ffffff"></path><path transform="translate(84,1987)" d="M0,0l2,1l-19,19v-3z" fill="#fcfcfc"></path><path transform="translate(63,2008)" d="M0,0l2,1l-3,2z" fill="#fcfcfc"></path><path transform="translate(87,1984)" d="M0,0l2,1l-3,2z" fill="#fcfcfc"></path><path transform="translate(91,1980)" d="M0,0l2,1l-3,2z" fill="#fcfcfc"></path><path transform="translate(1621,448)" d="M0,0l2,1l-1,2z" fill="#fcfcfc"></path><path transform="translate(59,2012)" d="M0,0l2,1l-2,1z" fill="#fcfcfc"></path><path transform="translate(95,1976)" d="M0,0l2,1l-2,1z" fill="#fcfcfc"></path><path transform="translate(1301,1274)" d="M0,0l2,1z" fill="#fcfcfc"></path><path transform="translate(47,2025)" d="M0,0" fill="#fcfcfc"></path><path transform="translate(48,2024)" d="M0,0" fill="#fcfcfc"></path><path transform="translate(49,2023)" d="M0,0" fill="#fcfcfc"></path><path transform="translate(50,2022)" d="M0,0" fill="#fcfcfc"></path><path transform="translate(51,2021)" d="M0,0" fill="#fcfcfc"></path><path transform="translate(52,2020)" d="M0,0" fill="#fcfcfc"></path><path transform="translate(53,2019)" d="M0,0" fill="#fcfcfc"></path><path transform="translate(54,2018)" d="M0,0" fill="#fcfcfc"></path><path transform="translate(55,2017)" d="M0,0" fill="#fcfcfc"></path><path transform="translate(56,2016)" d="M0,0" fill="#fcfcfc"></path><path transform="translate(57,2015)" d="M0,0" fill="#fcfcfc"></path><path transform="translate(58,2014)" d="M0,0" fill="#fcfcfc"></path><path transform="translate(61,2011)" d="M0,0" fill="#fcfcfc"></path><path transform="translate(65,2007)" d="M0,0" fill="#fcfcfc"></path><path transform="translate(89,1983)" d="M0,0" fill="#fcfcfc"></path><path transform="translate(93,1979)" d="M0,0" fill="#fcfcfc"></path><path transform="translate(94,1978)" d="M0,0" fill="#fcfcfc"></path><path transform="translate(97,1975)" d="M0,0" fill="#fcfcfc"></path><path transform="translate(98,1974)" d="M0,0" fill="#fcfcfc"></path><path transform="translate(99,1973)" d="M0,0" fill="#fcfcfc"></path><path transform="translate(100,1972)" d="M0,0" fill="#fcfcfc"></path><path transform="translate(101,1971)" d="M0,0" fill="#fcfcfc"></path><path transform="translate(102,1970)" d="M0,0" fill="#fcfcfc"></path><path transform="translate(103,1969)" d="M0,0" fill="#fcfcfc"></path><path transform="translate(104,1968)" d="M0,0" fill="#fcfcfc"></path><path transform="translate(105,1967)" d="M0,0" fill="#fcfcfc"></path><path transform="translate(106,1966)" d="M0,0" fill="#fcfcfc"></path><path transform="translate(107,1965)" d="M0,0" fill="#fcfcfc"></path><path transform="translate(108,1964)" d="M0,0" fill="#fcfcfc"></path><path transform="translate(109,1963)" d="M0,0" fill="#fcfcfc"></path><path transform="translate(110,1962)" d="M0,0" fill="#fcfcfc"></path><path transform="translate(111,1961)" d="M0,0" fill="#fcfcfc"></path><path transform="translate(112,1960)" d="M0,0" fill="#fcfcfc"></path><path transform="translate(113,1959)" d="M0,0" fill="#fcfcfc"></path><path transform="translate(114,1958)" d="M0,0" fill="#fcfcfc"></path><path transform="translate(115,1957)" d="M0,0" fill="#fcfcfc"></path><path transform="translate(116,1956)" d="M0,0" fill="#fcfcfc"></path><path transform="translate(117,1955)" d="M0,0" fill="#fcfcfc"></path><path transform="translate(118,1954)" d="M0,0" fill="#fcfcfc"></path><path transform="translate(119,1953)" d="M0,0" fill="#fcfcfc"></path><path transform="translate(121,1951)" d="M0,0" fill="#fcfcfc"></path><path transform="translate(122,1950)" d="M0,0" fill="#fcfcfc"></path><path transform="translate(123,1949)" d="M0,0" fill="#fcfcfc"></path><path transform="translate(126,1946)" d="M0,0" fill="#fcfcfc"></path><path transform="translate(127,1945)" d="M0,0" fill="#fcfcfc"></path><path transform="translate(130,1942)" d="M0,0" fill="#fcfcfc"></path><path transform="translate(131,1941)" d="M0,0" fill="#fcfcfc"></path><path transform="translate(135,1937)" d="M0,0" fill="#fcfcfc"></path><path transform="translate(139,1933)" d="M0,0" fill="#fcfcfc"></path><path transform="translate(143,1929)" d="M0,0" fill="#fcfcfc"></path><path transform="translate(1303,1275)" d="M0,0" fill="#fcfcfc"></path><path transform="translate(1855,218)" d="M0,0" fill="#fcfcfc"></path><path transform="translate(1883,189)" d="M0,0" fill="#fcfcfc"></path><path transform="translate(1887,185)" d="M0,0" fill="#fcfcfc"></path><path transform="translate(1891,181)" d="M0,0" fill="#fcfcfc"></path><path transform="translate(1895,177)" d="M0,0" fill="#fcfcfc"></path><path transform="translate(1899,173)" d="M0,0" fill="#fcfcfc"></path><path transform="translate(1902,170)" d="M0,0" fill="#fcfcfc"></path><path transform="translate(1903,169)" d="M0,0" fill="#fcfcfc"></path><path transform="translate(1906,166)" d="M0,0" fill="#fcfcfc"></path><path transform="translate(1907,165)" d="M0,0" fill="#fcfcfc"></path><path transform="translate(1910,162)" d="M0,0" fill="#fcfcfc"></path><path transform="translate(1911,161)" d="M0,0" fill="#fcfcfc"></path><path transform="translate(1915,157)" d="M0,0" fill="#fcfcfc"></path><path transform="translate(1919,153)" d="M0,0" fill="#fcfcfc"></path><path transform="translate(1923,149)" d="M0,0" fill="#fcfcfc"></path><path transform="translate(1927,145)" d="M0,0" fill="#fcfcfc"></path><path transform="translate(1931,141)" d="M0,0" fill="#fcfcfc"></path><path transform="translate(1935,137)" d="M0,0" fill="#fcfcfc"></path><path transform="translate(1938,134)" d="M0,0" fill="#fcfcfc"></path><path transform="translate(1939,133)" d="M0,0" fill="#fcfcfc"></path><path transform="translate(1942,130)" d="M0,0" fill="#fcfcfc"></path><path transform="translate(1943,129)" d="M0,0" fill="#fcfcfc"></path><path transform="translate(1946,126)" d="M0,0" fill="#fcfcfc"></path><path transform="translate(1947,125)" d="M0,0" fill="#fcfcfc"></path><path transform="translate(1950,122)" d="M0,0" fill="#fcfcfc"></path><path transform="translate(1951,121)" d="M0,0" fill="#fcfcfc"></path><path transform="translate(1954,118)" d="M0,0" fill="#fcfcfc"></path><path transform="translate(1955,117)" d="M0,0" fill="#fcfcfc"></path><path transform="translate(1958,114)" d="M0,0" fill="#fcfcfc"></path><path transform="translate(1959,113)" d="M0,0" fill="#fcfcfc"></path><path transform="translate(1962,110)" d="M0,0" fill="#fcfcfc"></path><path transform="translate(1963,109)" d="M0,0" fill="#fcfcfc"></path><path transform="translate(1966,106)" d="M0,0" fill="#fcfcfc"></path><path transform="translate(1967,105)" d="M0,0" fill="#fcfcfc"></path><path transform="translate(1970,102)" d="M0,0" fill="#fcfcfc"></path><path transform="translate(1971,101)" d="M0,0" fill="#fcfcfc"></path><path transform="translate(1974,98)" d="M0,0" fill="#fcfcfc"></path><path transform="translate(1975,97)" d="M0,0" fill="#fcfcfc"></path><path transform="translate(1978,94)" d="M0,0" fill="#fcfcfc"></path><path transform="translate(1979,93)" d="M0,0" fill="#fcfcfc"></path><path transform="translate(1982,90)" d="M0,0" fill="#fcfcfc"></path><path transform="translate(1983,89)" d="M0,0" fill="#fcfcfc"></path><path transform="translate(1986,86)" d="M0,0" fill="#fcfcfc"></path><path transform="translate(1987,85)" d="M0,0" fill="#fcfcfc"></path><path transform="translate(1990,82)" d="M0,0" fill="#fcfcfc"></path><path transform="translate(1991,81)" d="M0,0" fill="#fcfcfc"></path><path transform="translate(2000,77)" d="M0,0" fill="#fcfcfc"></path><path transform="translate(2000,73)" d="M0,0" fill="#fcfcfc"></path><path transform="translate(2000,69)" d="M0,0" fill="#fcfcfc"></path><path transform="translate(2007,65)" d="M0,0" fill="#fcfcfc"></path><path transform="translate(2011,61)" d="M0,0" fill="#fcfcfc"></path><path transform="translate(2015,57)" d="M0,0" fill="#fcfcfc"></path><path transform="translate(2019,53)" d="M0,0" fill="#fcfcfc"></path><path transform="translate(2023,49)" d="M0,0" fill="#fcfcfc"></path></g></g></svg>